<?xml version="1.0" standalone="no"?><!DOCTYPE svg PUBLIC "-//W3C//DTD SVG 1.1//EN" "http://www.w3.org/Graphics/SVG/1.1/DTD/svg11.dtd"><svg t="1691656848159" class="icon" viewBox="0 0 1024 1024" version="1.1" xmlns="http://www.w3.org/2000/svg" p-id="8353" xmlns:xlink="http://www.w3.org/1999/xlink" width="200" height="200"><path d="M575.8 896H160c-17.7 0-32-14.3-32-32V160c0-17.7 14.3-32 32-32h383.9v160c0 35.3 28.6 64 64 64h159.9v160c0 17.7 14.3 32 32 32s32-14.3 32-32V270.2c0-8.5-3.3-16.6-9.3-22.6L649.2 73.4c-6-6-14.2-9.4-22.7-9.4H128c-35.3 0-64 28.7-64 64v768c0 35.3 28.6 64 64 64h447.9c17.7 0 32-14.3 32-32-0.1-17.7-14.4-32-32.1-32z m64-608c-17.7 0-32-14.3-32-32V128l159.9 160H639.8z" p-id="8354"></path><path d="M543.8 672H223c-17.7 0-32 14.3-32 32s14.3 32 32 32h320.9c17.7 0 32-14.3 32-32-0.1-17.7-14.4-32-32.1-32zM606.8 480H223c-17.7 0-32 14.3-32 32s14.3 32 32 32h383.9c17.7 0 32-14.3 32-32-0.1-17.7-14.4-32-32.1-32zM223 352h191.9c17.7 0 32-14.3 32-32s-14.3-32-32-32H223c-17.7 0-32 14.3-32 32s14.3 32 32 32zM738 959c-17.7 0-32-14.3-32-32V756c0-17.7 14.3-32 32-32s32 14.3 32 32v171c0 17.7-14.3 32-32 32zM912.6 836.5c-4.6 0-9.3-1-13.7-3.1-16-7.6-22.8-26.7-15.2-42.6 8.2-17.2 12.3-35.6 12.3-54.8 0-53.6-33.8-101.9-84.1-120.3-16.6-6.1-25.2-24.4-19.1-41 6.1-16.6 24.4-25.2 41-19.1 36.6 13.4 68 37.3 90.7 69.2 23.2 32.6 35.5 71 35.5 111.2 0 28.8-6.2 56.4-18.5 82.3-5.5 11.5-16.9 18.2-28.9 18.2z" p-id="8355"></path><path d="M819.4 811.8c-4.6 0-9.3-1-13.7-3.1-16-7.6-22.8-26.7-15.2-42.6 3-6.3 4.5-13.1 4.5-20.1 0-19.7-12.4-37.4-30.9-44.2-16.6-6.1-25.2-24.4-19.1-41 6.1-16.6 24.4-25.2 41-19.1 43.6 15.9 73 57.8 73 104.3 0 16.6-3.6 32.6-10.7 47.6-5.5 11.5-17 18.2-28.9 18.2z" p-id="8356"></path></svg>