<?xml version="1.0" standalone="no"?><!DOCTYPE svg PUBLIC "-//W3C//DTD SVG 1.1//EN" "http://www.w3.org/Graphics/SVG/1.1/DTD/svg11.dtd"><svg t="1691652960404" class="icon" viewBox="0 0 1024 1024" version="1.1" xmlns="http://www.w3.org/2000/svg" p-id="5165" xmlns:xlink="http://www.w3.org/1999/xlink" width="200" height="200"><path d="M896.2 284.6H664.7v-173c0-5.1 5.5-8.3 9.9-5.7l223.3 172.5c2.9 1.7 1.7 6.2-1.7 6.2z" fill="#2c2c2c" p-id="5166"></path><path d="M896.2 307.6H641.6v-196c0-10.6 5.7-20.4 14.9-25.7 9.2-5.3 20.6-5.2 29.7 0.1l2.5 1.7 222.7 172.1c9 6.3 13.2 17.7 10.3 28.4-3.1 11.4-13.6 19.4-25.5 19.4z m-208.5-46.1h150.6L687.7 145.2v116.3z" fill="#2c2c2c" p-id="5167"></path><path d="M840.9 953.2H172.2c-39.1 0-70.8-34-70.8-75.8V139.6c0-41.8 31.8-75.8 70.8-75.8h394c25.9 0 46.9 22.2 46.9 49.4V334h251.6c25.9 0 46.9 22.2 46.9 49.4v494.1c0.1 41.7-31.7 75.7-70.7 75.7zM565.8 109.9l-393.6 0.1c-13.6 0-24.7 13.3-24.7 29.6v737.8c0 16.3 11.1 29.6 24.7 29.6h668.7c13.6 0 24.7-13.3 24.7-29.6v-494c0-2-1-3.2-1.3-3.4l-261 0.1c-20 0-36.2-16.3-36.2-36.2V113.3c0-2.1-1-3.2-1.3-3.4z" fill="#2c2c2c" p-id="5168"></path></svg>